<svg xmlns="http://www.w3.org/2000/svg" viewBox="0 0 44 75" fill="none" x="0px" y="0px"><path d="M5 3.38221e-08C4.86867 -3.41257e-05 4.73862 0.0258072 4.61728 0.0760498C4.49593 0.126292 4.38568 0.199951 4.29282 0.292816C4.19995 0.385682 4.12629 0.495934 4.07605 0.617275C4.02581 0.738616 3.99997 0.868669 4 1C3.99913 1.79538 3.68278 2.55794 3.12036 3.12036C2.55794 3.68278 1.79538 3.99913 1 4C0.734784 4 0.480429 4.10536 0.292892 4.29289C0.105356 4.48043 0 4.73478 0 5C0 5.26522 0.105356 5.51957 0.292892 5.70711C0.480429 5.89464 0.734784 6 1 6C1.79538 6.00087 2.55794 6.31722 3.12036 6.87964C3.68278 7.44206 3.99913 8.20462 4 9C4 9.26522 4.10536 9.51957 4.29289 9.70711C4.48043 9.89464 4.73478 10 5 10C5.26522 10 5.51957 9.89464 5.70711 9.70711C5.89464 9.51957 6 9.26522 6 9C6.00087 8.20462 6.31722 7.44206 6.87964 6.87964C7.44206 6.31722 8.20462 6.00087 9 6C9.26522 6 9.51957 5.89464 9.70711 5.70711C9.89464 5.51957 10 5.26522 10 5C10 4.73478 9.89464 4.48043 9.70711 4.29289C9.51957 4.10536 9.26522 4 9 4C8.20462 3.99913 7.44206 3.68278 6.87964 3.12036C6.31722 2.55794 6.00087 1.79538 6 1C6.00003 0.868669 5.97419 0.738616 5.92395 0.617275C5.87371 0.495934 5.80005 0.385682 5.70718 0.292816C5.61432 0.199951 5.50407 0.126292 5.38272 0.0760498C5.26138 0.0258072 5.13133 -3.41257e-05 5 3.38221e-08V3.38221e-08ZM6.03094 5C5.63899 5.29168 5.29168 5.63899 5 6.03094C4.70832 5.63899 4.36101 5.29168 3.96906 5C4.36101 4.70832 4.70832 4.36101 5 3.96906C5.29168 4.36101 5.63899 4.70832 6.03094 5Z" transform="translate(34 34)" fill="white"/><path d="M1 4C0.734784 4 0.48043 4.10536 0.292893 4.29289C0.105357 4.48043 0 4.73478 0 5C0 5.26522 0.105357 5.51957 0.292893 5.70711C0.48043 5.89464 0.734784 6 1 6C1.79538 6.00087 2.55794 6.31722 3.12036 6.87964C3.68278 7.44206 3.99913 8.20462 4 9C4 9.26522 4.10536 9.51957 4.29289 9.70711C4.48043 9.89464 4.73478 10 5 10C5.26522 10 5.51957 9.89464 5.70711 9.70711C5.89464 9.51957 6 9.26522 6 9C6.00087 8.20462 6.31722 7.44206 6.87964 6.87964C7.44206 6.31722 8.20462 6.00087 9 6C9.26522 6 9.51957 5.89464 9.70711 5.70711C9.89464 5.51957 10 5.26522 10 5C10 4.73478 9.89464 4.48043 9.70711 4.29289C9.51957 4.10536 9.26522 4 9 4C8.20462 3.99913 7.44206 3.68278 6.87964 3.12036C6.31722 2.55794 6.00087 1.79538 6 1C6 0.734784 5.89464 0.480429 5.70711 0.292892C5.51957 0.105356 5.26522 0 5 0C4.73478 0 4.48043 0.105356 4.29289 0.292892C4.10536 0.480429 4 0.734784 4 1C3.99913 1.79538 3.68278 2.55794 3.12036 3.12036C2.55794 3.68278 1.79538 3.99913 1 4V4ZM6.03094 5C5.63899 5.29168 5.29168 5.63899 5 6.03094C4.70832 5.63899 4.36101 5.29168 3.96906 5C4.36101 4.70832 4.70832 4.36101 5 3.96906C5.29168 4.36101 5.63899 4.70832 6.03094 5V5Z" transform="translate(0 50)" fill="white"/><path d="M20 0H0V22H20V0ZM18 20H2V2H18V20Z" transform="translate(12 38)" fill="white"/><path d="M2 4C3.10457 4 4 3.10457 4 2C4 0.89543 3.10457 0 2 0C0.89543 0 0 0.89543 0 2C0 3.10457 0.89543 4 2 4Z" transform="translate(16 44)" fill="white"/><path d="M2 4C3.10457 4 4 3.10457 4 2C4 0.89543 3.10457 0 2 0C0.89543 0 0 0.89543 0 2C0 3.10457 0.89543 4 2 4Z" transform="translate(24 44)" fill="white"/><path d="M8.99992 2.03134e-09H0.999915C0.802145 -7.33729e-07 0.608816 0.0586448 0.444379 0.168522C0.279941 0.278399 0.151779 0.434573 0.076102 0.61729C0.000424638 0.800008 -0.0193694 1.00106 0.019223 1.19503C0.0578154 1.389 0.153061 1.56717 0.292914 1.707L4.29291 5.707C4.38575 5.79988 4.49597 5.87356 4.61728 5.92383C4.7386 5.9741 4.86863 5.99997 4.99995 5.99997C5.13126 5.99997 5.26129 5.9741 5.38261 5.92383C5.50392 5.87356 5.61415 5.79988 5.70698 5.707L9.70698 1.707C9.84683 1.56716 9.94208 1.38899 9.98067 1.19501C10.0193 1.00104 9.99946 0.799984 9.92378 0.617264C9.84809 0.434544 9.71992 0.278372 9.55547 0.168499C9.39103 0.0586265 9.19769 -1.26017e-05 8.99992 2.03134e-09ZM4.99992 3.58594L3.41398 2H6.58586L4.99992 3.58594Z" transform="translate(17.0001 50)" fill="white"/><path d="M10 2.72282e-06C7.75249 -0.00165581 5.57003 0.754421 3.80519 2.1461C2.04036 3.53777 0.796219 5.48377 0.273753 7.66973C-0.248714 9.85569 -0.0189944 12.154 0.925803 14.1933C1.8706 16.2326 3.4753 17.8938 5.48067 18.9086L6.00783 23.124C6.03809 23.3659 6.1556 23.5883 6.3383 23.7496C6.521 23.9109 6.75631 23.9999 7.00002 24V27C6.99999 27.1313 7.02583 27.2614 7.07607 27.3827C7.12632 27.5041 7.19997 27.6143 7.29284 27.7072C7.3857 27.8001 7.49596 27.8737 7.6173 27.924C7.73864 27.9742 7.86869 28 8.00002 28H12C12.1314 28 12.2614 27.9742 12.3827 27.924C12.5041 27.8737 12.6143 27.8001 12.7072 27.7072C12.8001 27.6143 12.8737 27.5041 12.924 27.3827C12.9742 27.2614 13.0001 27.1313 13 27V24C13.2437 23.9999 13.4791 23.9109 13.6617 23.7496C13.8444 23.5883 13.962 23.3658 13.9922 23.124L14.5188 18.9089C16.5242 17.8942 18.1291 16.233 19.074 14.1937C20.0189 12.1544 20.2487 9.85609 19.7263 7.67006C19.2039 5.48403 17.9598 3.53795 16.195 2.14621C14.4301 0.754472 12.2476 -0.00164754 10 2.72282e-06V2.72282e-06ZM11 26H9.00002V24H11V26ZM12.1172 22H7.88283L7.5945 19.6953C9.1723 20.1015 10.8273 20.1016 12.4051 19.6954L12.1172 22ZM10 18C8.41777 18 6.87105 17.5308 5.55546 16.6518C4.23987 15.7727 3.21449 14.5233 2.60898 13.0615C2.00348 11.5997 1.84506 9.99113 2.15374 8.43928C2.46242 6.88743 3.22435 5.46197 4.34317 4.34315C5.46199 3.22433 6.88745 2.4624 8.4393 2.15372C9.99115 1.84504 11.5997 2.00347 13.0615 2.60897C14.5233 3.21447 15.7727 4.23985 16.6518 5.55544C17.5308 6.87103 18 8.41775 18 10C17.9976 12.121 17.154 14.1544 15.6542 15.6542C14.1544 17.1539 12.121 17.9976 10 18Z" transform="translate(12 8)" fill="white"/><path d="M9.38281 0.0765516C9.20013 0.000541799 8.99897 -0.0194313 8.80491 0.0191728C8.61085 0.0577769 8.43265 0.153215 8.29297 0.293352L7 1.58632L5.707 0.293322C5.61417 0.200441 5.50395 0.12676 5.38263 0.0764906C5.26132 0.026221 5.13129 0.000347289 4.99997 0.000347289C4.86865 0.000347289 4.73862 0.026221 4.61731 0.0764906C4.49599 0.12676 4.38577 0.200441 4.29294 0.293322L3 1.58632L1.707 0.293322C1.56716 0.153465 1.38899 0.0582172 1.19501 0.0196268C1.00104 -0.0189637 0.799982 0.000836246 0.617262 0.0765211C0.434542 0.152206 0.27837 0.280377 0.168497 0.444824C0.0586245 0.609271 -1.26017e-05 0.802607 2.0314e-09 1.00038V5.00038C2.0314e-09 5.2656 0.105356 5.51995 0.292892 5.70749C0.480429 5.89503 0.734784 6.00038 1 6.00038C1.26522 6.00038 1.51957 5.89503 1.70711 5.70749C1.89464 5.51995 2 5.2656 2 5.00038V3.41444L2.293 3.70744C2.38583 3.80032 2.49605 3.874 2.61737 3.92427C2.73868 3.97454 2.86871 4.00042 3.00003 4.00042C3.13135 4.00042 3.26138 3.97454 3.38269 3.92427C3.50401 3.874 3.61423 3.80032 3.70706 3.70744L5 2.41444L6.293 3.70744C6.38583 3.80032 6.49605 3.874 6.61737 3.92427C6.73868 3.97454 6.86871 4.00042 7.00003 4.00042C7.13135 4.00042 7.26138 3.97454 7.38269 3.92427C7.50401 3.874 7.61423 3.80032 7.70706 3.70744L8.00006 3.41444V5.00038C8.00006 5.2656 8.10542 5.51995 8.29295 5.70749C8.48049 5.89503 8.73484 6.00038 9.00006 6.00038C9.26528 6.00038 9.51963 5.89503 9.70717 5.70749C9.8947 5.51995 10.0001 5.2656 10.0001 5.00038V1.00038C10.0001 0.8026 9.94151 0.609244 9.83163 0.444792C9.72176 0.28034 9.56556 0.152185 9.38281 0.0765516V0.0765516Z" transform="translate(17 13.9996)" fill="white"/><path d="M2 0H0V4H2V0Z" transform="translate(21)" fill="white"/><path d="M4 0H0V2H4V0Z" transform="translate(36 17)" fill="white"/><path d="M4 0H0V2H4V0Z" transform="translate(4 17)" fill="white"/><path d="M1.99979 0H0V4.24264H1.99979V0Z" transform="translate(6.29297 4.70703) rotate(-45)" fill="white"/><path d="M4.24264 0H0V1.99979H4.24264V0Z" transform="translate(33.293 6.29297) rotate(-45)" fill="white"/><path d="M4.24264 0H0V1.99979H4.24264V0Z" transform="translate(6.29297 30.293) rotate(-45)" fill="white"/><path d="M1.99979 0H0V4.24264H1.99979V0Z" transform="translate(33.293 28.707) rotate(-45)" fill="white"/></svg>